<?xml version="1.0" encoding="utf-8"?>
<!-- Generator: Adobe Illustrator 16.0.0, SVG Export Plug-In . SVG Version: 6.00 Build 0)  -->
<!DOCTYPE svg PUBLIC "-//W3C//DTD SVG 1.1//EN" "http://www.w3.org/Graphics/SVG/1.1/DTD/svg11.dtd">
<svg version="1.1" id="Layer_1" xmlns="http://www.w3.org/2000/svg" xmlns:xlink="http://www.w3.org/1999/xlink" x="0px" y="0px"
	 width="700px" height="700px" viewBox="0 0 700 700" enable-background="new 0 0 700 700" xml:space="preserve">
<g>
	<path d="M479.51,471.41H218.3c-1.203,0-2.371-0.395-3.328-1.129c-47.145-36.137-73.105-92.059-73.105-157.46
		c0-3.645,0.113-7.434,0.332-11.254c0.168-2.895,2.563-5.152,5.461-5.152h404.69c2.898,0,5.293,2.258,5.457,5.152
		c0.223,3.82,0.332,7.605,0.332,11.254c0,31.676-6.543,61.479-19.449,88.574c-12.983,27.262-31.776,50.44-55.848,68.891
		c-0.953,0.734-2.121,1.129-3.324,1.129L479.51,471.41z M220.17,460.472h257.47c44.867-35.098,69.556-87.461,69.556-147.66
		c0-1.793-0.027-3.621-0.086-5.469h-394.22c-0.059,1.852-0.086,3.68-0.086,5.469C152.803,374.059,176.709,426.412,220.17,460.472
		L220.17,460.472z"/>
	<path d="M262.37,471.41c-1.16,0-2.332-0.367-3.324-1.129c-15.328-11.75-28.566-25.719-39.344-41.512
		c-10.047-14.724-17.996-31.095-23.621-48.66c-0.922-2.875,0.664-5.953,3.539-6.875s5.953,0.66,6.875,3.539
		c5.305,16.559,12.789,31.979,22.242,45.832c10.121,14.836,22.559,27.957,36.965,38.996c2.394,1.84,2.852,5.27,1.011,7.668
		C265.64,470.672,264.015,471.41,262.37,471.41L262.37,471.41z"/>
	<path d="M459.75,515.16H237.79c-13.812,0-25.055-11.285-25.055-25.156v-24.062c0-3.02,2.449-5.47,5.469-5.47h261.13
		c3.02,0,5.469,2.449,5.469,5.47v24.062c0,13.871-11.238,25.156-25.055,25.156H459.75z M223.67,471.41v18.594
		c0,7.84,6.332,14.219,14.117,14.219h221.96c7.781,0,14.117-6.379,14.117-14.219V471.41H223.67z"/>
	<path d="M202.34,345.62c0,6.039-4.898,10.938-10.938,10.938s-10.938-4.898-10.938-10.938c0-6.04,4.898-10.938,10.938-10.938
		S202.34,339.581,202.34,345.62"/>
	<path d="M442.97,345.62c0,6.039-4.898,10.938-10.938,10.938c-6.04,0-10.938-4.898-10.938-10.938c0-6.04,4.898-10.938,10.938-10.938
		C438.071,334.682,442.97,339.581,442.97,345.62"/>
	<path d="M596.09,444.06c0,6.039-4.898,10.938-10.938,10.938c-6.04,0-10.938-4.898-10.938-10.938
		c0-6.039,4.898-10.938,10.938-10.938C591.191,433.122,596.09,438.021,596.09,444.06"/>
	<path d="M552.34,487.81c0,6.039-4.898,10.938-10.938,10.938c-6.04,0-10.938-4.898-10.938-10.938
		c0-6.039,4.898-10.938,10.938-10.938C547.441,476.872,552.34,481.771,552.34,487.81"/>
	<path d="M169.53,487.81c0,6.039-4.898,10.938-10.938,10.938c-6.04,0-10.938-4.898-10.938-10.938
		c0-6.039,4.898-10.938,10.938-10.938C164.632,476.872,169.53,481.771,169.53,487.81"/>
	<path d="M125.78,422.19c0,6.039-4.898,10.938-10.938,10.938c-6.04,0-10.938-4.898-10.938-10.938c0-6.04,4.898-10.938,10.938-10.938
		C120.882,411.252,125.78,416.15,125.78,422.19"/>
	<path d="M574.22,192.5c0,6.039-4.898,10.938-10.938,10.938c-6.04,0-10.938-4.898-10.938-10.938s4.898-10.938,10.938-10.938
		C569.321,181.562,574.22,186.46,574.22,192.5"/>
	<path d="M388.28,126.88c0,6.039-4.898,10.938-10.938,10.938c-6.039,0-10.938-4.898-10.938-10.938s4.898-10.938,10.938-10.938
		C383.382,115.942,388.28,120.84,388.28,126.88"/>
	<path d="M300.78,61.25c0,6.039-4.898,10.938-10.938,10.938c-6.04,0-10.938-4.898-10.938-10.938s4.898-10.938,10.938-10.938
		C295.882,50.312,300.78,55.21,300.78,61.25"/>
	<path d="M147.66,192.5c0,6.039-4.898,10.938-10.938,10.938s-10.938-4.898-10.938-10.938s4.898-10.938,10.938-10.938
		S147.66,186.46,147.66,192.5"/>
	<path d="M552.34,307.34H147.65c-3.02,0-5.469-2.449-5.469-5.469v-43.75c0-3.02,2.449-5.469,5.469-5.469h404.69
		c3.02,0,5.469,2.449,5.469,5.469v43.75C557.809,304.891,555.359,307.34,552.34,307.34z M153.12,296.402h393.75V263.59H153.12
		V296.402z"/>
	<path d="M399.22,351.09H267.97c-3.02,0-5.469-2.449-5.469-5.469s2.449-5.469,5.469-5.469h131.25c3.02,0,5.469,2.449,5.469,5.469
		S402.239,351.09,399.22,351.09z"/>
	<path d="M399.22,263.59c-1.469,0-2.93-0.586-4.008-1.746c-2.055-2.211-1.926-5.676,0.285-7.727l153.12-142.19
		c2.211-2.055,5.676-1.926,7.727,0.285c2.055,2.211,1.926,5.676-0.285,7.727l-153.12,142.19
		C401.888,263.105,400.552,263.59,399.22,263.59L399.22,263.59z"/>
	<path d="M422.78,187.03c-1.469,0-2.93-0.586-4.008-1.746c-2.055-2.211-1.926-5.676,0.285-7.727l129.569-120.31
		c2.211-2.055,5.676-1.926,7.727,0.285c2.055,2.211,1.926,5.676-0.285,7.727l-129.569,120.31
		C425.448,186.546,424.112,187.03,422.78,187.03L422.78,187.03z"/>
	<path d="M344.53,208.91H196.87c-12.062,0-21.875-9.813-21.875-21.875s9.813-21.875,21.875-21.875h87.5
		c6.031,0,10.938-4.906,10.938-10.938s-4.906-10.938-10.938-10.938h-39.012c-14.676,0-26.613-11.938-26.613-26.613v-11.668
		c0-3.02,2.449-5.469,5.469-5.469s5.469,2.449,5.469,5.469v11.668c0,8.645,7.031,15.676,15.676,15.676h39.012
		c12.062,0,21.875,9.813,21.875,21.875s-9.812,21.875-21.875,21.875h-87.5c-6.031,0-10.938,4.906-10.938,10.938
		c0,6.032,4.906,10.938,10.938,10.938h147.66c3.02,0,5.469,2.449,5.469,5.469S347.55,208.911,344.53,208.91L344.53,208.91z"/>
</g>
</svg>
